<svg id="lettere" xmlns="http://www.w3.org/2000/svg" viewBox="0 0 943.62 769.01">
<defs><style>.cls-1{fill:#353535;}</style></defs><title>Logo Futbob 2.0</title>
<g id="LINE">
   <path class="cls-1" d="M717.28,564.76" transform="translate(-118.43 -103.36)"/>
</g>
<g id="LINE-2" data-name="LINE">
<path class="cls-1" d="M643.66,411" transform="translate(-118.43 -103.36)"/>
<path class="cls-1" d="M831.35,411" transform="translate(-118.43 -103.36)"/>
</g>
<g id="LINE-3" data-name="LINE"><line class="cls-1" x1="456.27" y1="769.01" x2="452.11" y2="769.01"/>
</g>
<g id="LWPOLYLINE"><path class="cls-1" d="M1003.31,487.86c84.72-94.73,76.85-240.08-17.44-325.11-42.81-38.61-98.76-59.39-156.4-59.39H635.35a483.22,483.22,0,0,1,85.23,153.8h109.8c42.41,0,77.55,33.91,77.87,76.32A76.91,76.91,0,0,1,831.35,411H745.51a483.82,483.82,0,0,1-24.93,153.8H831.35a76.91,76.91,0,0,1,76.9,77.49c-.32,42.4-35.46,76.32-77.87,76.32h-195a485,485,0,0,1-226.17,153.8H831.35c127.41,0,230.7-103.29,230.7-230.7A230.73,230.73,0,0,0,1003.31,487.86Zm-349.86,76.9A420.3,420.3,0,0,0,682.4,411H309.71A48.69,48.69,0,0,1,261,459.65V832.34A419.86,419.86,0,0,0,549,718.57H403.6V564.76ZM549,103.36H118.43v15.38A138.42,138.42,0,0,0,256.85,257.16h396.6A421.91,421.91,0,0,0,549,103.36Z" transform="translate(-118.43 -103.36)"/>
</g>
</svg>